<svg id="Warstwa_1" data-name="Warstwa 1" xmlns="http://www.w3.org/2000/svg" viewBox="0 0 386 484.67"><defs><style>.cls-1,.cls-2{fill:#000000;}.cls-2,.cls-3{stroke:#000000;}.cls-2{stroke-miterlimit:10;}.cls-3{fill:none;stroke-linecap:round;stroke-linejoin:round;stroke-width:2px;}</style></defs><title>baobar_logo_v3_krzywe</title><path class="cls-1" d="M143,590.77a21,21,0,0,1,7.84,1.46,20.75,20.75,0,0,1,6.4,4,18.82,18.82,0,0,1,4.32,5.86,16.52,16.52,0,0,1,1.6,7.18,16.28,16.28,0,0,1-1.6,7.14,18.92,18.92,0,0,1-4.32,5.82,20.7,20.7,0,0,1-6.4,4,21,21,0,0,1-7.84,1.47,22.11,22.11,0,0,1-7.12-1.13,19.36,19.36,0,0,1-6-3.26,0.79,0.79,0,0,0-.64-0.29,0.71,0.71,0,0,0-.8.81v2.19a1.21,1.21,0,0,1-.36.88,1.23,1.23,0,0,1-.92.37h-3A1.18,1.18,0,0,1,122.8,626V577a1.35,1.35,0,0,1,.44-0.77,1.31,1.31,0,0,1,.92-0.33h3a1.24,1.24,0,0,1,.92.37,1.21,1.21,0,0,1,.36.88v17.5a0.71,0.71,0,0,0,.8.81,0.79,0.79,0,0,0,.64-0.29,21,21,0,0,1,6-3.22A21.51,21.51,0,0,1,143,590.77Zm0,31.7a15.22,15.22,0,0,0,5.64-1,14.77,14.77,0,0,0,4.6-2.86,13.31,13.31,0,0,0,3.12-4.25,12,12,0,0,0,1.12-5.12,12.22,12.22,0,0,0-1.12-5.2,12.92,12.92,0,0,0-3.12-4.21,15.76,15.76,0,0,0-4.6-2.86,14.79,14.79,0,0,0-5.64-1.06,15.19,15.19,0,0,0-5.64,1.06,14.94,14.94,0,0,0-4.64,2.86,13.66,13.66,0,0,0-3.12,4.21,11.86,11.86,0,0,0-1.16,5.2,11.68,11.68,0,0,0,1.16,5.12,14,14,0,0,0,7.76,7.1A15.62,15.62,0,0,0,143,622.47Z" transform="translate(-109.25 -143)"/><path class="cls-1" d="M229.2,591.28a1.46,1.46,0,0,1,1,.33,1,1,0,0,1,.4.84v33.6a1.06,1.06,0,0,1-1.28,1.1h-3a1.37,1.37,0,0,1-1-.37,1.15,1.15,0,0,1-.4-0.88v-2.12a1,1,0,0,0-.2-0.62,0.72,0.72,0,0,0-.6-0.26,1,1,0,0,0-.64.29A12.69,12.69,0,0,1,221,625a23.09,23.09,0,0,1-3.2,1.43,22,22,0,0,1-7.32,1.28,21,21,0,0,1-7.84-1.47,20.69,20.69,0,0,1-6.4-4,18.76,18.76,0,0,1-4.32-5.86,16.88,16.88,0,0,1,0-14.35,18.78,18.78,0,0,1,4.32-5.86,20.74,20.74,0,0,1,6.4-4,21.85,21.85,0,0,1,14.92-.29,20.14,20.14,0,0,1,6,3.29,1.53,1.53,0,0,0,.72.22,0.68,0.68,0,0,0,.72-0.81v-2.12a1.15,1.15,0,0,1,.4-0.88,1.37,1.37,0,0,1,1-.37h2.88Zm-18.72,31.19a15.23,15.23,0,0,0,5.64-1,14.77,14.77,0,0,0,4.6-2.86,13.28,13.28,0,0,0,3.12-4.25,12.37,12.37,0,0,0,0-10.29,13.43,13.43,0,0,0-3.12-4.21,14.8,14.8,0,0,0-4.6-2.86,15.26,15.26,0,0,0-5.64-1,15.66,15.66,0,0,0-5.64,1,14.08,14.08,0,0,0-4.64,2.86,14.26,14.26,0,0,0-3.12,4.21,12,12,0,0,0,0,10.29,14,14,0,0,0,7.76,7.1A15.62,15.62,0,0,0,210.48,622.47Z" transform="translate(-109.25 -143)"/><path class="cls-1" d="M279.52,627.45a21,21,0,0,1-7.84-1.47,20.7,20.7,0,0,1-6.4-4,18.75,18.75,0,0,1-4.32-5.86,16.89,16.89,0,0,1,0-14.35,18.77,18.77,0,0,1,4.32-5.86,20.75,20.75,0,0,1,6.4-4,21.73,21.73,0,0,1,15.68,0,20.78,20.78,0,0,1,6.4,4,18.28,18.28,0,0,1,4.28,5.86,17.28,17.28,0,0,1,0,14.35,18.26,18.26,0,0,1-4.28,5.86,20.72,20.72,0,0,1-6.4,4A21,21,0,0,1,279.52,627.45Zm0-31.7a15.66,15.66,0,0,0-5.64,1,14.11,14.11,0,0,0-4.64,2.86,14.26,14.26,0,0,0-3.12,4.21,12,12,0,0,0,0,10.29,14,14,0,0,0,7.76,7.1,15.62,15.62,0,0,0,5.64,1,15.23,15.23,0,0,0,5.64-1,14.78,14.78,0,0,0,4.6-2.85,13.29,13.29,0,0,0,3.12-4.25,12.37,12.37,0,0,0,0-10.29,13.43,13.43,0,0,0-3.12-4.21,14.83,14.83,0,0,0-4.6-2.86A15.26,15.26,0,0,0,279.52,595.75Z" transform="translate(-109.25 -143)"/><path class="cls-1" d="M348.4,590.77a21,21,0,0,1,7.84,1.46,20.75,20.75,0,0,1,6.4,4A18.82,18.82,0,0,1,367,602a16.52,16.52,0,0,1,1.6,7.18,16.28,16.28,0,0,1-1.6,7.14,18.92,18.92,0,0,1-4.32,5.82,20.7,20.7,0,0,1-6.4,4,21,21,0,0,1-7.84,1.47,22.11,22.11,0,0,1-7.12-1.13,19.36,19.36,0,0,1-6-3.26,0.79,0.79,0,0,0-.64-0.29,0.71,0.71,0,0,0-.8.81v2.19a1.21,1.21,0,0,1-.36.88,1.23,1.23,0,0,1-.92.37h-3a1.18,1.18,0,0,1-1.28-1.17V577a1.35,1.35,0,0,1,.44-0.77,1.31,1.31,0,0,1,.92-0.33h3a1.24,1.24,0,0,1,.92.37,1.21,1.21,0,0,1,.36.88v17.5a0.71,0.71,0,0,0,.8.81,0.79,0.79,0,0,0,.64-0.29,21,21,0,0,1,6-3.22A21.51,21.51,0,0,1,348.4,590.77Zm0,31.7a15.22,15.22,0,0,0,5.64-1,14.77,14.77,0,0,0,4.6-2.86,13.31,13.31,0,0,0,3.12-4.25,12,12,0,0,0,1.12-5.12,12.22,12.22,0,0,0-1.12-5.2,12.92,12.92,0,0,0-3.12-4.21A15.76,15.76,0,0,0,354,597a14.79,14.79,0,0,0-5.64-1.06,15.19,15.19,0,0,0-5.64,1.06,14.94,14.94,0,0,0-4.64,2.86A13.66,13.66,0,0,0,335,604a11.86,11.86,0,0,0-1.16,5.2,11.68,11.68,0,0,0,1.16,5.12,14,14,0,0,0,7.76,7.1A15.62,15.62,0,0,0,348.4,622.47Z" transform="translate(-109.25 -143)"/><path class="cls-1" d="M434.64,591.28a1.46,1.46,0,0,1,1,.33,1,1,0,0,1,.4.84v33.6a1.06,1.06,0,0,1-1.28,1.1h-3a1.37,1.37,0,0,1-1-.37,1.15,1.15,0,0,1-.4-0.88v-2.12a1,1,0,0,0-.2-0.62,0.72,0.72,0,0,0-.6-0.26,1,1,0,0,0-.64.29,12.69,12.69,0,0,1-2.52,1.76,23.09,23.09,0,0,1-3.2,1.43,22,22,0,0,1-7.32,1.28,21,21,0,0,1-7.84-1.47,20.69,20.69,0,0,1-6.4-4,18.76,18.76,0,0,1-4.32-5.86,16.88,16.88,0,0,1,0-14.35,18.78,18.78,0,0,1,4.32-5.86,20.74,20.74,0,0,1,6.4-4,21.85,21.85,0,0,1,14.92-.29,20.14,20.14,0,0,1,6,3.29,1.53,1.53,0,0,0,.72.22,0.68,0.68,0,0,0,.72-0.81v-2.12a1.15,1.15,0,0,1,.4-0.88,1.37,1.37,0,0,1,1-.37h2.88Zm-18.72,31.19a15.23,15.23,0,0,0,5.64-1,14.77,14.77,0,0,0,4.6-2.86,13.28,13.28,0,0,0,3.12-4.25,12.37,12.37,0,0,0,0-10.29,13.43,13.43,0,0,0-3.12-4.21,14.8,14.8,0,0,0-4.6-2.86,15.26,15.26,0,0,0-5.64-1,15.66,15.66,0,0,0-5.64,1,14.08,14.08,0,0,0-4.64,2.86,14.26,14.26,0,0,0-3.12,4.21,12,12,0,0,0,0,10.29,14,14,0,0,0,7.76,7.1A15.62,15.62,0,0,0,415.92,622.47Z" transform="translate(-109.25 -143)"/><path class="cls-1" d="M484.16,590.77a1.87,1.87,0,0,1,1,.4,1,1,0,0,1,.4.84v2.71a1,1,0,0,1-.4.84,1.86,1.86,0,0,1-1,.4,13.53,13.53,0,0,0-4.76,1.28,13.88,13.88,0,0,0-3.84,2.71,12.22,12.22,0,0,0-2.56,3.73,11,11,0,0,0-.92,4.5v17.86a1.36,1.36,0,0,1-.44.77,1.2,1.2,0,0,1-.84.33h-3a1.23,1.23,0,0,1-.92-0.37,1.21,1.21,0,0,1-.36-0.88V592.53a1.12,1.12,0,0,1,.4-0.92,1.46,1.46,0,0,1,1-.33h2.88a1.2,1.2,0,0,1,1.36,1.1v1.9a0.74,0.74,0,0,0,.8.59,0.91,0.91,0,0,0,.64-0.22,19.19,19.19,0,0,1,4.92-2.67A20.79,20.79,0,0,1,484.16,590.77Z" transform="translate(-109.25 -143)"/><line class="cls-2" y1="413.39" x2="386" y2="413.39"/><path class="cls-1" d="M266.61,278.92a47.52,47.52,0,0,0-8.93-17.44,46,46,0,0,0-14.92-12.32A47.13,47.13,0,0,0,225,244c-1.28-.11-2.58-0.16-3.86-0.16a48.93,48.93,0,0,0-14.61,2.29,47.14,47.14,0,0,0-17,9.64,50.2,50.2,0,0,0-11.23,14,53,53,0,0,0-5.74,16.4,2.16,2.16,0,0,1-2,2.21,2.11,2.11,0,0,1-1.55-1l-23-28.7-0.06-.07-3.42-4.26a3.17,3.17,0,0,0-2.14-1.24,3.59,3.59,0,0,0-.44,0,2.72,2.72,0,0,0-1.87.75l-5.49,4.8a3.16,3.16,0,0,0-1.15,2.18,3.77,3.77,0,0,0,.46,2.31l2.93,3.66,0.15,0.18L211,361.57a3.55,3.55,0,0,0,2.39,1.19,2.9,2.9,0,0,0,1.93-.82L220.9,357a3.06,3.06,0,0,0,1.09-2.25,3.44,3.44,0,0,0-.8-2.4l-3.67-4.58a1.9,1.9,0,0,1,.15-3,1.7,1.7,0,0,1,1.19-.48,2.31,2.31,0,0,1,.48.05h0.71a44.42,44.42,0,0,0,15.82-2.95A50.81,50.81,0,0,0,263,316.58,53,53,0,0,0,266.61,278.92ZM254.92,297a37.79,37.79,0,0,1-3.75,13.38,35.83,35.83,0,0,1-8.74,11.26,35.06,35.06,0,0,1-12.15,7,33.26,33.26,0,0,1-10.39,1.72c-1,0-2-.05-3-0.15a35.75,35.75,0,0,1-12.87-3.79,32.84,32.84,0,0,1-10.69-8.78A34.69,34.69,0,0,1,186.85,305a38.14,38.14,0,0,1,2.6-27.25,35.49,35.49,0,0,1,8.68-11.33,33.08,33.08,0,0,1,12.22-6.92A36.66,36.66,0,0,1,221,257.87c0.88,0,1.76,0,2.64.09a32.36,32.36,0,0,1,12.78,3.72,34.36,34.36,0,0,1,10.75,9,35.56,35.56,0,0,1,6.45,12.48A37.4,37.4,0,0,1,254.92,297Z" transform="translate(-109.25 -143)"/><path class="cls-1" d="M367.54,224.12l-56-69.88a2.73,2.73,0,0,0-2.14-1.1h-0.1A3.32,3.32,0,0,0,307,154l-5.32,4.67a3.36,3.36,0,0,0-1.17,2.31,3.31,3.31,0,0,0,.73,2.47l3.54,4.41c0.88,1.13.88,2.07,0,2.86a3.61,3.61,0,0,1-1.7.7h-0.8a45.87,45.87,0,0,0-15.74,2.8,47,47,0,0,0-15.07,9A49.6,49.6,0,0,0,259.42,199a53.92,53.92,0,0,0-5.26,18.58,53.24,53.24,0,0,0,1.76,19.16,48.48,48.48,0,0,0,9,17.5,45.65,45.65,0,0,0,14.92,12.34,47,47,0,0,0,17.77,5.2c1.28,0.11,2.58.16,3.88,0.16a48.11,48.11,0,0,0,14.56-2.31A47.09,47.09,0,0,0,333,260a48.93,48.93,0,0,0,6.35-6.72,49.92,49.92,0,0,0,5.07-7.8A57.23,57.23,0,0,0,348,237.3a34.07,34.07,0,0,0,1.74-7.72,2.35,2.35,0,0,1,.69-1.65,1.74,1.74,0,0,1,1.15-.49,1.34,1.34,0,0,1,.38.05,2.72,2.72,0,0,1,1.43,1l3.54,4.41a3,3,0,0,0,2.2,1.19h0.13a2,2,0,0,0,.48,0,3.75,3.75,0,0,0,.48-0.07,3.83,3.83,0,0,0,.82-0.33,2.94,2.94,0,0,0,.48-0.37l5.47-4.78C368.58,227.09,368.75,225.64,367.54,224.12Zm-30.68.38a38.12,38.12,0,0,1-3.75,13.38,35.83,35.83,0,0,1-8.74,11.26,35,35,0,0,1-12.15,7,32.61,32.61,0,0,1-10.37,1.72c-1,0-2-.05-3-0.15A35.27,35.27,0,0,1,286,253.92a32.14,32.14,0,0,1-10.69-8.77,34,34,0,0,1-6.45-12.61,39.91,39.91,0,0,1-1.24-13.8,36,36,0,0,1,3.83-13.45A36.68,36.68,0,0,1,280.17,194a33.77,33.77,0,0,1,22.57-8.62c0.94,0,1.91,0,2.87.13a33.07,33.07,0,0,1,23.49,12.63,35.33,35.33,0,0,1,6.45,12.46A37.44,37.44,0,0,1,336.86,224.51Z" transform="translate(-109.25 -143)"/><path class="cls-3" d="M468.27,501.65a0.55,0.55,0,0,0-.13-0.09,15.37,15.37,0,0,0-9.05-3.15,48,48,0,0,1-10.44-2,36.63,36.63,0,0,1-9-4.14,36.18,36.18,0,0,1-7.1-6,0.26,0.26,0,0,0-.06-0.07c-0.5-.55-1-1.08-1.38-1.63a76.27,76.27,0,0,0,9.41-4.7,59,59,0,0,0,13.22-10.41,46.55,46.55,0,0,0,8.86-13.32,39,39,0,0,0,3.27-15.67,39.74,39.74,0,0,0-5.24-19.78,51.92,51.92,0,0,0-13.94-15.76,68.57,68.57,0,0,0-20.1-10.41,77.75,77.75,0,0,0-21-3.7,10.84,10.84,0,0,0,.31-1.17,9.15,9.15,0,0,0-3-8.46l-30-28.73a57.65,57.65,0,0,0,11.55,1.17q2.45,0,4.9-.22A59,59,0,0,0,411.4,347a55.93,55.93,0,0,0,18.19-15,57.14,57.14,0,0,0,10.6-20.61,61.22,61.22,0,0,0,2-22.05A62,62,0,0,0,436.15,268a59,59,0,0,0-14.31-18.61A58.14,58.14,0,0,0,401,237.55a61,61,0,0,0-18.13-2.84c-1.61,0-3.25.07-4.86,0.22-1.4.11-2.83,0.29-4.21,0.53l0.61-.53c5.13-4.48,5.83-10.94,1.72-16.07l-56-69.88a13.71,13.71,0,0,0-10.35-5h-0.48a14.65,14.65,0,0,0-9.64,3.55l-5.32,4.65a12,12,0,0,0-4.19,8.05,11.51,11.51,0,0,0,.15,3.29,60.5,60.5,0,0,0-7.67,2.21,58.25,58.25,0,0,0-18.48,11,59,59,0,0,0-14.31,18.61,60.89,60.89,0,0,0-4,43.47c0.15,0.51.29,1,.46,1.52a58.41,58.41,0,0,0-20.2-5.51c-1.61-.13-3.25-0.2-4.86-0.2A61.15,61.15,0,0,0,203,237.46a58.22,58.22,0,0,0-20.85,11.79,60,60,0,0,0-13.29,16.53c-0.59,1.08-1.15,2.18-1.66,3.29L154.66,253.4c-0.06-.05-0.1-0.13-0.17-0.18l-3.31-4.15a13.92,13.92,0,0,0-9.1-5,15.82,15.82,0,0,0-2.07-.15,13.94,13.94,0,0,0-9.3,3.46l-5.47,4.76a12,12,0,0,0-4.19,8,12.15,12.15,0,0,0,1.55,7.1,8.87,8.87,0,0,0,.78,1.15l2.93,3.66,0.15,0.18,75.9,94.66c0.25,0.29.52,0.59,0.8,0.86a14.45,14.45,0,0,0,7.61,4l-9.43,9c-4,3.39-3.9,7.21-3.67,8.75a7.38,7.38,0,0,0,.27,1.17H131.48a11.3,11.3,0,0,0-7.42,2.69,8.63,8.63,0,0,0-3.06,6.5l0,12c0,5,4.69,9.11,10.48,9.11h24.9v38.69H131.61a11.3,11.3,0,0,0-7.42,2.69,8.63,8.63,0,0,0-3.06,6.5l0,12.15c0,5,4.69,9.11,10.48,9.11h24.77v26.61a11.24,11.24,0,0,0,4.53,8.8l0.1,0.09a15.58,15.58,0,0,0,9.66,3.17h8.07A16.06,16.06,0,0,0,187.9,526a11,11,0,0,0,5.18-9V490H363.53c0.31,0,.63,0,0.94,0h21.79a13.2,13.2,0,0,0,1.49.09h5.8a53,53,0,0,0,7.8,12.77,61.36,61.36,0,0,0,14.9,13.1,78.79,78.79,0,0,0,19.28,8.77,91.21,91.21,0,0,0,22.36,3.84c0.21,0,.4,0,0.61,0a15.89,15.89,0,0,0,9.24-2.78,11.29,11.29,0,0,0,5.05-9.28v-6.17A11.24,11.24,0,0,0,468.27,501.65Z" transform="translate(-109.25 -143)"/><path class="cls-1" d="M362.86,390.63H240.92l12.72-11.84a13.4,13.4,0,0,1,1.93-.11h92.54a14.37,14.37,0,0,1,2,.11Z" transform="translate(-109.25 -143)"/><path class="cls-1" d="M327.24,276.9a59.1,59.1,0,0,0-.48,31.41L312,294.2a9,9,0,0,0-.8-0.7,16.51,16.51,0,0,0-18.78,0c-0.29.22-.54,0.46-0.82,0.7l-14.52,13.93a60.05,60.05,0,0,0,1.63-9.39,61.51,61.51,0,0,0-1.93-21.93c-0.15-.51-0.27-1-0.44-1.5a58.81,58.81,0,0,0,20.24,5.53c1.61,0.13,3.25.2,4.88,0.2a60.26,60.26,0,0,0,18.11-2.84,58.41,58.41,0,0,0,8.26-3.33Q327.52,275.89,327.24,276.9Z" transform="translate(-109.25 -143)"/><path class="cls-1" d="M326.42,223.77a29.89,29.89,0,0,1-3,10.51,26.3,26.3,0,0,1-6.52,8.4,24.12,24.12,0,0,1-8.45,4.89,20.61,20.61,0,0,1-6.66,1.13c-0.61,0-1.24,0-1.84-.09a24.11,24.11,0,0,1-8.72-2.58,22.68,22.68,0,0,1-7.4-6.13,25.22,25.22,0,0,1-4.82-9.44,32.29,32.29,0,0,1-1-11.05A28.27,28.27,0,0,1,281,209a27.33,27.33,0,0,1,6.56-8.46,23.35,23.35,0,0,1,8.34-4.87,21.86,21.86,0,0,1,6.81-1.08c0.61,0,1.24,0,1.89.07a22.25,22.25,0,0,1,8.45,2.47,23.59,23.59,0,0,1,7.44,6.31,26.39,26.39,0,0,1,4.88,9.43A29.64,29.64,0,0,1,326.42,223.77Z" transform="translate(-109.25 -143)"/><path class="cls-1" d="M244.48,296.27a29.54,29.54,0,0,1-3,10.52,26,26,0,0,1-6.52,8.38,24,24,0,0,1-8.45,4.9,21.24,21.24,0,0,1-6.69,1.13c-0.61,0-1.22,0-1.82-.09a24.14,24.14,0,0,1-8.72-2.6,22.44,22.44,0,0,1-7.4-6.13,26.12,26.12,0,0,1-4.9-9.55,30,30,0,0,1,2.05-21.54,25.84,25.84,0,0,1,6.45-8.44,22.11,22.11,0,0,1,8.24-4.76A24.7,24.7,0,0,1,221,267q0.88,0,1.76.05a20.8,20.8,0,0,1,8.26,2.43,24.24,24.24,0,0,1,7.59,6.42,26.83,26.83,0,0,1,4.86,9.43A29.57,29.57,0,0,1,244.48,296.27Z" transform="translate(-109.25 -143)"/><path class="cls-1" d="M431.77,290.12a53.47,53.47,0,0,0-5.26-18.58,49.57,49.57,0,0,0-12.09-15.74,47.1,47.1,0,0,0-17-9.63,48.35,48.35,0,0,0-14.59-2.31c-1.3,0-2.58.05-3.86,0.16a46.28,46.28,0,0,0-17.71,5.25,47,47,0,0,0-14.84,12.41,49,49,0,0,0-9.07,17.44,51.51,51.51,0,0,0-1.84,19.09,53.35,53.35,0,0,0,5.26,18.58,49.37,49.37,0,0,0,12.09,15.74,47.1,47.1,0,0,0,17,9.63,48.22,48.22,0,0,0,14.56,2.31c1.3,0,2.6-.05,3.88-0.16a47,47,0,0,0,17.77-5.2A45.44,45.44,0,0,0,421,326.78a48.49,48.49,0,0,0,9-17.5A53.28,53.28,0,0,0,431.77,290.12Zm-14.67,15a33.8,33.8,0,0,1-6.48,12.61,32.19,32.19,0,0,1-10.69,8.78,35.29,35.29,0,0,1-12.85,3.79c-1,.09-2,0.15-3,0.15a33.13,33.13,0,0,1-10.37-1.72,35.25,35.25,0,0,1-12.15-7,35.83,35.83,0,0,1-8.74-11.26,38.57,38.57,0,0,1-3.75-13.38,37.44,37.44,0,0,1,1.3-13.87,35,35,0,0,1,6.48-12.46,33.4,33.4,0,0,1,10.67-8.93,33.8,33.8,0,0,1,12.8-3.7c1-.09,1.93-0.13,2.89-0.13a33.68,33.68,0,0,1,22.55,8.62,37.15,37.15,0,0,1,12.57,24.69A40.87,40.87,0,0,1,417.1,305.11Z" transform="translate(-109.25 -143)"/><path class="cls-1" d="M406.89,303a25.58,25.58,0,0,1-4.84,9.44,22.39,22.39,0,0,1-7.4,6.11,23.8,23.8,0,0,1-8.7,2.6c-0.63.05-1.26,0.09-1.87,0.09a21.08,21.08,0,0,1-6.66-1.12,24.22,24.22,0,0,1-8.45-4.92,26.36,26.36,0,0,1-6.52-8.36,30.66,30.66,0,0,1-3-10.52,29.64,29.64,0,0,1,1-10.93,26.39,26.39,0,0,1,4.88-9.43,23.42,23.42,0,0,1,7.46-6.31,22,22,0,0,1,8.45-2.47c0.63,0,1.26-.07,1.89-0.07a22,22,0,0,1,6.81,1.08,23.67,23.67,0,0,1,8.32,4.85,27.61,27.61,0,0,1,6.56,8.47,28.27,28.27,0,0,1,3,10.43A32.32,32.32,0,0,1,406.89,303Z" transform="translate(-109.25 -143)"/><path class="cls-1" d="M395.2,387.43l-90.91-87.06a5,5,0,0,0-4.9,0l-90.61,86.8c-0.92.7-1,1.21-.15,1.54a6.54,6.54,0,0,0,2.6.51H225.1a6.22,6.22,0,0,0,4.36-1.28l16.87-15.72q2.45-2.69,9.24-2.69h92.54c4.53,0,7.63.9,9.26,2.69l17.14,15.85a6.17,6.17,0,0,0,4.09,1.15h13.87a5.65,5.65,0,0,0,2.45-.51C395.64,388.38,395.74,387.94,395.2,387.43Zm-133.14-30.2,37.32-37.3a4.18,4.18,0,0,1,2.45-.77,3.13,3.13,0,0,1,2.45.9l37.32,37.17H262.06Z" transform="translate(-109.25 -143)"/><polygon class="cls-1" points="209.25 205.08 175.89 205.08 192.53 188.45 209.25 205.08"/><path class="cls-1" d="M461.21,508.4a4.29,4.29,0,0,0-2.7-.86A58.69,58.69,0,0,1,445.07,505a47.39,47.39,0,0,1-11.67-5.4,45.47,45.47,0,0,1-9.05-7.61,30.32,30.32,0,0,1-6-9.24c-0.59-1.35-.5-2.36.21-3a8.18,8.18,0,0,1,2.05-1.28,66.1,66.1,0,0,0,14-6.17,48.68,48.68,0,0,0,11-8.64,37.36,37.36,0,0,0,7.19-10.78,30.67,30.67,0,0,0,2.58-12.41,31.55,31.55,0,0,0-4.15-15.74,42.54,42.54,0,0,0-11.44-12.92,57.32,57.32,0,0,0-16.91-8.73,66,66,0,0,0-20.66-3.17H391v-0.09h-3.39v0H131.48l0,12H166.9v57H131.61l0,12.15H166.9v35.76a2.58,2.58,0,0,0,1.11,2,4.26,4.26,0,0,0,2.7.86h8.07a4.58,4.58,0,0,0,2.68-.77A2.14,2.14,0,0,0,182.6,517V483.8c0.29-1.94,1.72-2.91,4.25-2.91H364.48v0h23.28V481h9.33a5.73,5.73,0,0,1,4.25,1.37,3.26,3.26,0,0,1,.88,1.54,43.62,43.62,0,0,0,7.65,13.69,51.85,51.85,0,0,0,12.55,11,67.62,67.62,0,0,0,16.6,7.52,79.62,79.62,0,0,0,19.49,3.35,4.6,4.6,0,0,0,2.7-.77,2.48,2.48,0,0,0,1.11-2.14v-6.17A2.58,2.58,0,0,0,461.21,508.4Zm-59-39.53H388.93v-0.09H367.49v0H186.85c-2.54,0-4-1-4.25-2.91l0.21-18v-33a2.45,2.45,0,0,1,1.13-2.14,5.94,5.94,0,0,1,2.7-1H364.48v0.05h23.28v0.09h14.46a46.55,46.55,0,0,1,14.59,2.21,38.76,38.76,0,0,1,11.78,6.17,31.17,31.17,0,0,1,8,9.06,22.68,22.68,0,0,1,0,22.16,29.68,29.68,0,0,1-8,9.08,39.84,39.84,0,0,1-11.78,6.08A46,46,0,0,1,402.22,468.87Z" transform="translate(-109.25 -143)"/><path class="cls-1" d="M429,440.47a14.46,14.46,0,0,1-1.84,7,20.67,20.67,0,0,1-5.45,6.19,29.21,29.21,0,0,1-8.59,4.39,34.44,34.44,0,0,1-10.88,1.63H390.4a12.83,12.83,0,0,0-1.47-.09h-20.5c-0.31,0-.63,0-0.94,0H193.14L193.28,448v-27h170c0.38,0,.75.05,1.15,0.05h21.82a12.86,12.86,0,0,0,1.47.09h14.46a35,35,0,0,1,10.9,1.63,27.91,27.91,0,0,1,8.49,4.43,21.6,21.6,0,0,1,5.57,6.3A14.21,14.21,0,0,1,429,440.47Z" transform="translate(-109.25 -143)"/></svg>